<svg width="16" height="16" viewBox="0 0 16 16" fill="none" xmlns="http://www.w3.org/2000/svg">
<g clip-path="url(#clip0_327_42223)">
<path fill-rule="evenodd" clip-rule="evenodd" d="M3.28125 0H12.7188C14.529 0.00484375 15.9952 1.471 16 3.28113V12.7188C15.9952 14.5289 14.529 15.9951 12.7189 15.9999L3.28125 16C1.47106 15.9951 0.004875 14.5289 6.25e-05 12.7188L0 3.28125C0.004875 1.471 1.47106 0.00484375 3.28116 0H3.28125Z" fill="#14E76F"/>
<path d="M3.7168 4.74667C3.7168 4.33429 4.05066 4 4.46249 4H7.17745C7.65994 4 8.08218 4.32471 8.20667 4.79147L9.94081 11.2939C9.97296 11.4144 10.1503 11.3911 10.1503 11.2664V4H12.2808V11.2533C12.2808 11.6657 11.947 12 11.5351 12H8.80007C8.31886 12 7.8974 11.677 7.77175 11.2118L6.05671 4.86307C6.02423 4.74281 5.84735 4.76634 5.84735 4.89092V12H3.7168V4.74667Z" fill="#242B2D"/>
</g>
<defs>
<clipPath id="clip0_327_42223">
<rect width="16" height="16" fill="white"/>
</clipPath>
</defs>
</svg>
